<?xml version="1.0" standalone="no"?>
<!DOCTYPE svg PUBLIC "-//W3C//DTD SVG 20010904//EN"
 "http://www.w3.org/TR/2001/REC-SVG-20010904/DTD/svg10.dtd">
<svg version="1.0" xmlns="http://www.w3.org/2000/svg"
 width="700.000000pt" height="700.000000pt" viewBox="0 0 700.000000 700.000000"
 preserveAspectRatio="xMidYMid meet">
<metadata>
Created by potrace 1.11, written by Peter Selinger 2001-2013
</metadata>
<g transform="translate(0.000000,700.000000) scale(0.100000,-0.100000)"
fill="#000000" stroke="none">
<path d="M3325 6763 c-360 -76 -641 -373 -691 -734 -13 -93 -9 -210 10 -296 4
-18 -1 -24 -27 -32 -18 -5 -144 -51 -282 -101 -137 -51 -298 -109 -357 -130
l-107 -39 -27 47 c-102 178 -298 331 -499 390 -280 82 -567 27 -795 -153 -111
-88 -174 -167 -239 -300 -69 -141 -86 -218 -85 -390 0 -152 12 -214 64 -337
97 -227 290 -405 527 -486 179 -61 401 -58 575 8 28 11 53 19 53 17 1 -1 82
-137 180 -302 97 -165 186 -314 196 -331 11 -17 19 -36 19 -41 0 -6 -81 -135
-181 -289 -125 -193 -186 -279 -197 -277 -9 0 -50 13 -91 27 -310 110 -656 28
-896 -211 -178 -178 -265 -408 -252 -668 17 -335 230 -628 554 -763 162 -68
392 -75 583 -18 136 40 307 156 402 272 l60 73 96 -48 c382 -187 730 -366 727
-371 -7 -11 -19 -138 -19 -190 2 -411 294 -767 699 -853 70 -15 293 -17 343
-3 12 3 32 8 43 11 82 18 223 83 299 138 348 254 463 725 270 1108 -16 32 -34
60 -40 64 -5 3 -10 12 -10 20 0 15 -2 13 243 269 219 229 208 218 428 447 103
107 212 221 244 254 191 200 236 245 246 245 7 0 20 -6 28 -14 30 -26 146 -83
211 -104 115 -36 171 -45 276 -45 247 2 450 87 622 261 167 170 250 376 250
618 -1 480 -393 870 -873 868 -168 -1 -335 -50 -469 -139 l-66 -43 -590 589
-590 590 39 57 c45 65 82 146 111 238 49 160 45 351 -11 518 -99 291 -344 510
-650 579 -85 19 -265 19 -354 0z m316 -217 c192 -41 358 -172 444 -351 51
-106 66 -166 69 -272 10 -362 -284 -667 -646 -671 -354 -3 -651 278 -662 627
-4 115 17 208 70 319 128 267 428 411 725 348z m-2378 -880 c412 -111 612
-593 398 -961 -37 -63 -40 -67 -83 -115 -149 -161 -382 -242 -597 -206 -204
34 -402 189 -486 381 -105 236 -61 511 112 704 103 115 224 180 398 214 43 8
203 -3 258 -17z m1507 -237 c25 -38 71 -97 104 -129 33 -34 56 -66 53 -74 -5
-14 -464 -725 -477 -739 -4 -4 -125 51 -270 123 -241 121 -261 133 -255 153
38 122 50 280 32 408 l-8 56 93 32 c51 18 102 37 113 42 11 4 40 15 65 24 25
8 142 51 260 94 118 44 222 80 230 80 8 0 35 -31 60 -70z m1856 -803 c321
-321 584 -586 584 -589 0 -4 -18 -34 -39 -67 -42 -64 -101 -197 -101 -226 0
-14 -8 -16 -62 -10 -35 3 -76 8 -93 11 -16 3 -97 14 -180 25 -82 11 -165 23
-182 25 -18 3 -57 8 -85 11 -88 11 -95 16 -97 71 -9 321 -231 634 -540 761
-267 109 -573 78 -816 -82 -62 -41 -172 -145 -218 -206 l-26 -34 -60 29 c-34
16 -61 32 -61 36 0 9 73 124 358 563 l113 175 42 -19 c45 -20 136 -47 197 -58
19 -4 91 -6 160 -6 105 1 140 6 215 28 89 27 191 75 256 121 19 13 38 24 43
25 5 0 271 -263 592 -584z m-2551 -208 c135 -68 245 -125 245 -129 0 -3 -33
-56 -72 -117 -40 -61 -117 -180 -172 -263 -70 -108 -101 -148 -106 -138 -5 8
-82 139 -173 292 l-164 278 68 66 c37 36 78 81 91 99 13 19 26 34 31 34 4 0
117 -55 252 -122z m1532 57 c59 -10 50 -8 98 -24 192 -64 353 -226 417 -419
78 -237 15 -494 -164 -670 -65 -64 -113 -96 -192 -132 -292 -130 -635 -30
-812 238 -179 269 -134 627 106 845 94 85 231 150 345 163 27 4 51 7 52 8 5 5
104 -2 150 -9z m-1004 -321 l74 -37 -13 -37 c-43 -126 -49 -312 -13 -457 41
-168 109 -285 238 -413 140 -139 260 -201 479 -246 l22 -4 0 -498 0 -497 -89
-22 c-50 -11 -115 -32 -145 -46 l-55 -26 -53 87 c-69 114 -86 143 -94 165 -3
9 -10 17 -15 17 -5 0 -9 4 -9 9 0 5 -103 182 -228 392 -522 878 -592 997 -592
1007 0 7 22 44 48 84 27 40 79 120 116 178 164 254 247 380 251 380 3 0 38
-16 78 -36z m3452 -15 c186 -43 359 -183 441 -356 153 -321 23 -707 -291 -866
-253 -127 -552 -82 -755 114 -261 253 -265 664 -10 930 89 92 243 172 360 186
25 3 46 6 48 8 7 6 163 -6 207 -16z m-1545 -559 c41 -6 90 -13 109 -15 68 -9
117 -16 141 -20 14 -2 52 -7 85 -10 33 -4 67 -8 75 -10 8 -2 35 -7 60 -10 25
-4 46 -7 46 -8 1 -1 4 -32 8 -68 16 -171 67 -315 159 -442 l34 -48 -46 -48
c-25 -27 -127 -133 -226 -237 -99 -103 -193 -202 -210 -220 -16 -17 -109 -114
-206 -215 -97 -101 -191 -200 -209 -219 -18 -19 -81 -86 -141 -147 l-109 -113
-63 46 c-107 79 -245 138 -369 159 l-38 6 0 498 c0 542 -3 511 53 511 45 0
218 68 293 115 173 108 321 295 376 475 l13 42 45 -6 c25 -2 79 -10 120 -16z
m-2285 -665 c114 -192 271 -456 348 -585 77 -129 148 -248 157 -265 10 -16 56
-95 103 -174 l86 -144 -52 -53 c-29 -29 -72 -84 -97 -123 -25 -38 -48 -70 -52
-70 -5 -1 -774 380 -795 393 -1 1 7 38 19 81 22 86 30 254 15 354 -11 78 -52
195 -99 281 -37 68 -133 190 -182 231 -18 15 -13 25 129 245 81 126 152 235
158 242 8 10 15 4 32 -25 12 -21 116 -195 230 -388z m-1028 -80 c236 -32 448
-218 525 -460 32 -102 32 -271 0 -375 -109 -351 -480 -547 -828 -436 -218 69
-411 283 -440 486 -3 19 -7 42 -10 50 -12 34 -3 176 16 251 84 327 393 531
737 484z m2483 -1110 c396 -120 586 -550 406 -920 -109 -222 -337 -366 -580
-366 -264 0 -492 146 -601 384 -41 91 -55 151 -59 254 -4 94 25 227 67 310 96
188 268 314 487 357 49 9 226 -3 280 -19z"/>
</g>
</svg>
